<mxfile host="app.diagrams.net" agent="Mozilla/5.0 (Windows NT 10.0; Win64; x64) AppleWebKit/537.36 (KHTML, like Gecko) Chrome/138.0.0.0 Safari/537.36 Edg/138.0.0.0" version="28.1.0">
  <diagram name="Página-1" id="F9eRu4Z59EJWHk-ZZMBA">
    <mxGraphModel>
      <root>
        <mxCell id="0" />
        <mxCell id="1" parent="0" />
        <mxCell id="2" value="Usuários" style="whiteSpace=wrap;strokeWidth=2;" vertex="1" parent="1">
          <mxGeometry x="161" y="8" width="120" height="54" as="geometry" />
        </mxCell>
        <mxCell id="3" value="Posts" style="whiteSpace=wrap;strokeWidth=2;" vertex="1" parent="1">
          <mxGeometry x="205" y="261" width="96" height="54" as="geometry" />
        </mxCell>
        <mxCell id="4" value="Seguindo" style="whiteSpace=wrap;strokeWidth=2;" vertex="1" parent="1">
          <mxGeometry x="544" y="134" width="124" height="54" as="geometry" />
        </mxCell>
        <mxCell id="5" value="Comentários" style="whiteSpace=wrap;strokeWidth=2;" vertex="1" parent="1">
          <mxGeometry x="17" y="387" width="150" height="54" as="geometry" />
        </mxCell>
        <mxCell id="6" value="Tags" style="whiteSpace=wrap;strokeWidth=2;" vertex="1" parent="1">
          <mxGeometry x="317" y="387" width="90" height="54" as="geometry" />
        </mxCell>
        <mxCell id="7" value="Outros Usuários" style="whiteSpace=wrap;strokeWidth=2;" vertex="1" parent="1">
          <mxGeometry x="520" y="261" width="172" height="54" as="geometry" />
        </mxCell>
        <mxCell id="8" value="Interação" style="whiteSpace=wrap;strokeWidth=2;" vertex="1" parent="1">
          <mxGeometry x="542" y="387" width="128" height="54" as="geometry" />
        </mxCell>
        <mxCell id="9" value="Recomendações" style="whiteSpace=wrap;strokeWidth=2;" vertex="1" parent="1">
          <mxGeometry x="383" y="514" width="174" height="54" as="geometry" />
        </mxCell>
        <mxCell id="10" value="Feed" style="whiteSpace=wrap;strokeWidth=2;" vertex="1" parent="1">
          <mxGeometry x="173" y="134" width="95" height="54" as="geometry" />
        </mxCell>
        <mxCell id="11" value="Insights" style="whiteSpace=wrap;strokeWidth=2;" vertex="1" parent="1">
          <mxGeometry x="607" y="514" width="114" height="54" as="geometry" />
        </mxCell>
        <mxCell id="12" value="Marketing" style="whiteSpace=wrap;strokeWidth=2;" vertex="1" parent="1">
          <mxGeometry x="598" y="640" width="130" height="54" as="geometry" />
        </mxCell>
        <mxCell id="13" value="Campanhas" style="whiteSpace=wrap;strokeWidth=2;" vertex="1" parent="1">
          <mxGeometry x="593" y="766" width="141" height="54" as="geometry" />
        </mxCell>
        <mxCell id="14" value="criam" style="curved=1;startArrow=none;endArrow=block;exitX=0.01;exitY=1;entryX=0;entryY=0.16;" edge="1" parent="1" source="2" target="3">
          <mxGeometry relative="1" as="geometry">
            <Array as="points">
              <mxPoint x="83" y="98" />
              <mxPoint x="83" y="225" />
            </Array>
          </mxGeometry>
        </mxCell>
        <mxCell id="15" value="seguem" style="curved=1;startArrow=none;endArrow=block;exitX=1;exitY=0.68;entryX=0.5;entryY=0.01;" edge="1" parent="1" source="2" target="4">
          <mxGeometry relative="1" as="geometry">
            <Array as="points">
              <mxPoint x="606" y="98" />
            </Array>
          </mxGeometry>
        </mxCell>
        <mxCell id="16" value="curtem" style="curved=1;startArrow=none;endArrow=block;exitX=0;exitY=0.88;entryX=0.34;entryY=0;" edge="1" parent="1" source="2" target="5">
          <mxGeometry relative="1" as="geometry">
            <Array as="points">
              <mxPoint x="36" y="98" />
              <mxPoint x="36" y="351" />
            </Array>
          </mxGeometry>
        </mxCell>
        <mxCell id="17" value="pertencem a" style="curved=1;startArrow=none;endArrow=block;exitX=1;exitY=0.16;entryX=1;entryY=0.85;" edge="1" parent="1" source="3" target="2">
          <mxGeometry relative="1" as="geometry">
            <Array as="points">
              <mxPoint x="422" y="225" />
              <mxPoint x="422" y="98" />
            </Array>
          </mxGeometry>
        </mxCell>
        <mxCell id="18" value="têm" style="curved=1;startArrow=none;endArrow=block;exitX=0;exitY=0.81;entryX=0.44;entryY=0;" edge="1" parent="1" source="3" target="5">
          <mxGeometry relative="1" as="geometry">
            <Array as="points">
              <mxPoint x="72" y="351" />
            </Array>
          </mxGeometry>
        </mxCell>
        <mxCell id="19" value="são marcados com" style="curved=1;startArrow=none;endArrow=block;exitX=0.73;exitY=1;entryX=0.23;entryY=0;" edge="1" parent="1" source="3" target="6">
          <mxGeometry relative="1" as="geometry">
            <Array as="points">
              <mxPoint x="304" y="351" />
            </Array>
          </mxGeometry>
        </mxCell>
        <mxCell id="20" value="seguem" style="curved=1;startArrow=none;endArrow=block;exitX=0.5;exitY=1.01;entryX=0.5;entryY=0;" edge="1" parent="1" source="4" target="7">
          <mxGeometry relative="1" as="geometry">
            <Array as="points" />
          </mxGeometry>
        </mxCell>
        <mxCell id="21" value="pertence a" style="curved=1;startArrow=none;endArrow=block;exitX=0.66;exitY=0;entryX=0.03;entryY=1;" edge="1" parent="1" source="5" target="3">
          <mxGeometry relative="1" as="geometry">
            <Array as="points">
              <mxPoint x="149" y="351" />
            </Array>
          </mxGeometry>
        </mxCell>
        <mxCell id="22" value="classificam" style="curved=1;startArrow=none;endArrow=block;exitX=0.84;exitY=0;entryX=1;entryY=0.81;" edge="1" parent="1" source="6" target="3">
          <mxGeometry relative="1" as="geometry">
            <Array as="points">
              <mxPoint x="433" y="351" />
            </Array>
          </mxGeometry>
        </mxCell>
        <mxCell id="23" value="aumentam a" style="curved=1;startArrow=none;endArrow=block;exitX=0.5;exitY=1;entryX=0.5;entryY=0;" edge="1" parent="1" source="7" target="8">
          <mxGeometry relative="1" as="geometry">
            <Array as="points" />
          </mxGeometry>
        </mxCell>
        <mxCell id="24" value="resulta em" style="curved=1;startArrow=none;endArrow=block;exitX=0.04;exitY=1;entryX=0.5;entryY=-0.01;" edge="1" parent="1" source="8" target="9">
          <mxGeometry relative="1" as="geometry">
            <Array as="points">
              <mxPoint x="470" y="477" />
            </Array>
          </mxGeometry>
        </mxCell>
        <mxCell id="25" value="visualizam" style="curved=1;startArrow=none;endArrow=block;exitX=0.5;exitY=1;entryX=0.5;entryY=0.01;" edge="1" parent="1" source="2" target="10">
          <mxGeometry relative="1" as="geometry">
            <Array as="points" />
          </mxGeometry>
        </mxCell>
        <mxCell id="26" value="exibe" style="curved=1;startArrow=none;endArrow=block;exitX=0.5;exitY=1.01;entryX=0.35;entryY=0;" edge="1" parent="1" source="10" target="3">
          <mxGeometry relative="1" as="geometry">
            <Array as="points">
              <mxPoint x="221" y="225" />
            </Array>
          </mxGeometry>
        </mxCell>
        <mxCell id="27" value="gera" style="curved=1;startArrow=none;endArrow=block;exitX=0.69;exitY=1;entryX=0.5;entryY=-0.01;" edge="1" parent="1" source="8" target="11">
          <mxGeometry relative="1" as="geometry">
            <Array as="points">
              <mxPoint x="663" y="477" />
            </Array>
          </mxGeometry>
        </mxCell>
        <mxCell id="28" value="informa" style="curved=1;startArrow=none;endArrow=block;exitX=0.5;exitY=0.99;entryX=0.5;entryY=0;" edge="1" parent="1" source="11" target="12">
          <mxGeometry relative="1" as="geometry">
            <Array as="points" />
          </mxGeometry>
        </mxCell>
        <mxCell id="29" value="acompanha" style="curved=1;startArrow=none;endArrow=block;exitX=0.5;exitY=1;entryX=0.5;entryY=0.01;" edge="1" parent="1" source="12" target="13">
          <mxGeometry relative="1" as="geometry">
            <Array as="points" />
          </mxGeometry>
        </mxCell>
      </root>
    </mxGraphModel>
  </diagram>
</mxfile>
